<svg width="1395" height="752" viewBox="0 0 1395 752" fill="none" xmlns="http://www.w3.org/2000/svg">
<circle cx="25.5" cy="2" r="2" fill="#D5D7DA"/>
<circle cx="89.5" cy="2" r="2" fill="#D5D7DA"/>
<circle cx="153.5" cy="2" r="2" fill="#D5D7DA"/>
<circle cx="217.5" cy="2" r="2" fill="#D5D7DA"/>
<circle cx="281.5" cy="2" r="2" fill="#D5D7DA"/>
<circle cx="345.5" cy="2" r="2" fill="#D5D7DA"/>
<circle cx="409.5" cy="2" r="2" fill="#D5D7DA"/>
<circle cx="473.5" cy="2" r="2" fill="#D5D7DA"/>
<circle cx="537.5" cy="2" r="2" fill="#D5D7DA"/>
<circle cx="601.5" cy="2" r="2" fill="#D5D7DA"/>
<circle cx="665.5" cy="2" r="2" fill="#D5D7DA"/>
<circle cx="729.5" cy="2" r="2" fill="#D5D7DA"/>
<circle cx="793.5" cy="2" r="2" fill="#D5D7DA"/>
<circle cx="857.5" cy="2" r="2" fill="#D5D7DA"/>
<circle cx="921.5" cy="2" r="2" fill="#D5D7DA"/>
<circle cx="985.5" cy="2" r="2" fill="#D5D7DA"/>
<circle cx="1049.5" cy="2" r="2" fill="#D5D7DA"/>
<circle cx="1113.5" cy="2" r="2" fill="#D5D7DA"/>
<circle cx="1177.5" cy="2" r="2" fill="#D5D7DA"/>
<circle cx="1241.5" cy="2" r="2" fill="#D5D7DA"/>
<circle cx="1305.5" cy="2" r="2" fill="#D5D7DA"/>
<circle cx="1369.5" cy="2" r="2" fill="#D5D7DA"/>
<circle cx="25.5" cy="46" r="2" fill="#D5D7DA"/>
<circle cx="89.5" cy="46" r="2" fill="#D5D7DA"/>
<circle cx="153.5" cy="46" r="2" fill="#D5D7DA"/>
<circle cx="217.5" cy="46" r="2" fill="#D5D7DA"/>
<circle cx="281.5" cy="46" r="2" fill="#D5D7DA"/>
<circle cx="345.5" cy="46" r="2" fill="#D5D7DA"/>
<circle cx="409.5" cy="46" r="2" fill="#D5D7DA"/>
<circle cx="473.5" cy="46" r="2" fill="#D5D7DA"/>
<circle cx="537.5" cy="46" r="2" fill="#D5D7DA"/>
<circle cx="601.5" cy="46" r="2" fill="#D5D7DA"/>
<circle cx="665.5" cy="46" r="2" fill="#D5D7DA"/>
<circle cx="729.5" cy="46" r="2" fill="#D5D7DA"/>
<circle cx="793.5" cy="46" r="2" fill="#D5D7DA"/>
<circle cx="857.5" cy="46" r="2" fill="#D5D7DA"/>
<circle cx="921.5" cy="46" r="2" fill="#D5D7DA"/>
<circle cx="985.5" cy="46" r="2" fill="#D5D7DA"/>
<circle cx="1049.5" cy="46" r="2" fill="#D5D7DA"/>
<circle cx="1113.5" cy="46" r="2" fill="#D5D7DA"/>
<circle cx="1177.5" cy="46" r="2" fill="#D5D7DA"/>
<circle cx="1241.5" cy="46" r="2" fill="#D5D7DA"/>
<circle cx="1305.5" cy="46" r="2" fill="#D5D7DA"/>
<circle cx="1369.5" cy="46" r="2" fill="#D5D7DA"/>
<circle cx="25.5" cy="90" r="2" fill="#D5D7DA"/>
<circle cx="89.5" cy="90" r="2" fill="#D5D7DA"/>
<circle cx="153.5" cy="90" r="2" fill="#D5D7DA"/>
<circle cx="217.5" cy="90" r="2" fill="#D5D7DA"/>
<circle cx="281.5" cy="90" r="2" fill="#D5D7DA"/>
<circle cx="345.5" cy="90" r="2" fill="#D5D7DA"/>
<circle cx="409.5" cy="90" r="2" fill="#D5D7DA"/>
<circle cx="473.5" cy="90" r="2" fill="#D5D7DA"/>
<circle cx="537.5" cy="90" r="2" fill="#D5D7DA"/>
<circle cx="601.5" cy="90" r="2" fill="#D5D7DA"/>
<circle cx="665.5" cy="90" r="2" fill="#D5D7DA"/>
<circle cx="729.5" cy="90" r="2" fill="#D5D7DA"/>
<circle cx="793.5" cy="90" r="2" fill="#D5D7DA"/>
<circle cx="857.5" cy="90" r="2" fill="#D5D7DA"/>
<circle cx="921.5" cy="90" r="2" fill="#D5D7DA"/>
<circle cx="985.5" cy="90" r="2" fill="#D5D7DA"/>
<circle cx="1049.5" cy="90" r="2" fill="#D5D7DA"/>
<circle cx="1113.5" cy="90" r="2" fill="#D5D7DA"/>
<circle cx="1177.5" cy="90" r="2" fill="#D5D7DA"/>
<circle cx="1241.5" cy="90" r="2" fill="#D5D7DA"/>
<circle cx="1305.5" cy="90" r="2" fill="#D5D7DA"/>
<circle cx="1369.5" cy="90" r="2" fill="#D5D7DA"/>
<circle cx="25.5" cy="134" r="2" fill="#D5D7DA"/>
<circle cx="89.5" cy="134" r="2" fill="#D5D7DA"/>
<circle cx="153.5" cy="134" r="2" fill="#D5D7DA"/>
<circle cx="217.5" cy="134" r="2" fill="#D5D7DA"/>
<circle cx="281.5" cy="134" r="2" fill="#D5D7DA"/>
<circle cx="345.5" cy="134" r="2" fill="#D5D7DA"/>
<circle cx="409.5" cy="134" r="2" fill="#D5D7DA"/>
<circle cx="473.5" cy="134" r="2" fill="#D5D7DA"/>
<circle cx="537.5" cy="134" r="2" fill="#D5D7DA"/>
<circle cx="601.5" cy="134" r="2" fill="#D5D7DA"/>
<circle cx="665.5" cy="134" r="2" fill="#D5D7DA"/>
<circle cx="729.5" cy="134" r="2" fill="#D5D7DA"/>
<circle cx="793.5" cy="134" r="2" fill="#D5D7DA"/>
<circle cx="857.5" cy="134" r="2" fill="#D5D7DA"/>
<circle cx="921.5" cy="134" r="2" fill="#D5D7DA"/>
<circle cx="985.5" cy="134" r="2" fill="#D5D7DA"/>
<circle cx="1049.5" cy="134" r="2" fill="#D5D7DA"/>
<circle cx="1113.5" cy="134" r="2" fill="#D5D7DA"/>
<circle cx="1177.5" cy="134" r="2" fill="#D5D7DA"/>
<circle cx="1241.5" cy="134" r="2" fill="#D5D7DA"/>
<circle cx="1305.5" cy="134" r="2" fill="#D5D7DA"/>
<circle cx="1369.5" cy="134" r="2" fill="#D5D7DA"/>
<circle cx="25.5" cy="178" r="2" fill="#D5D7DA"/>
<circle cx="89.5" cy="178" r="2" fill="#D5D7DA"/>
<circle cx="153.5" cy="178" r="2" fill="#D5D7DA"/>
<circle cx="217.5" cy="178" r="2" fill="#D5D7DA"/>
<circle cx="281.5" cy="178" r="2" fill="#D5D7DA"/>
<circle cx="345.5" cy="178" r="2" fill="#D5D7DA"/>
<circle cx="409.5" cy="178" r="2" fill="#D5D7DA"/>
<circle cx="473.5" cy="178" r="2" fill="#D5D7DA"/>
<circle cx="537.5" cy="178" r="2" fill="#D5D7DA"/>
<circle cx="601.5" cy="178" r="2" fill="#D5D7DA"/>
<circle cx="665.5" cy="178" r="2" fill="#D5D7DA"/>
<circle cx="729.5" cy="178" r="2" fill="#D5D7DA"/>
<circle cx="793.5" cy="178" r="2" fill="#D5D7DA"/>
<circle cx="857.5" cy="178" r="2" fill="#D5D7DA"/>
<circle cx="921.5" cy="178" r="2" fill="#D5D7DA"/>
<circle cx="985.5" cy="178" r="2" fill="#D5D7DA"/>
<circle cx="1049.5" cy="178" r="2" fill="#D5D7DA"/>
<circle cx="1113.5" cy="178" r="2" fill="#D5D7DA"/>
<circle cx="1177.5" cy="178" r="2" fill="#D5D7DA"/>
<circle cx="1241.5" cy="178" r="2" fill="#D5D7DA"/>
<circle cx="1305.5" cy="178" r="2" fill="#D5D7DA"/>
<circle cx="1369.5" cy="178" r="2" fill="#D5D7DA"/>
<circle cx="25.5" cy="222" r="2" fill="#D5D7DA"/>
<circle cx="89.5" cy="222" r="2" fill="#D5D7DA"/>
<circle cx="153.5" cy="222" r="2" fill="#D5D7DA"/>
<circle cx="217.5" cy="222" r="2" fill="#D5D7DA"/>
<circle cx="281.5" cy="222" r="2" fill="#D5D7DA"/>
<circle cx="345.5" cy="222" r="2" fill="#D5D7DA"/>
<circle cx="409.5" cy="222" r="2" fill="#D5D7DA"/>
<circle cx="473.5" cy="222" r="2" fill="#D5D7DA"/>
<circle cx="537.5" cy="222" r="2" fill="#D5D7DA"/>
<circle cx="601.5" cy="222" r="2" fill="#D5D7DA"/>
<circle cx="665.5" cy="222" r="2" fill="#D5D7DA"/>
<circle cx="729.5" cy="222" r="2" fill="#D5D7DA"/>
<circle cx="793.5" cy="222" r="2" fill="#D5D7DA"/>
<circle cx="857.5" cy="222" r="2" fill="#D5D7DA"/>
<circle cx="921.5" cy="222" r="2" fill="#D5D7DA"/>
<circle cx="985.5" cy="222" r="2" fill="#D5D7DA"/>
<circle cx="1049.5" cy="222" r="2" fill="#D5D7DA"/>
<circle cx="1113.5" cy="222" r="2" fill="#D5D7DA"/>
<circle cx="1177.5" cy="222" r="2" fill="#D5D7DA"/>
<circle cx="1241.5" cy="222" r="2" fill="#D5D7DA"/>
<circle cx="1305.5" cy="222" r="2" fill="#D5D7DA"/>
<circle cx="1369.5" cy="222" r="2" fill="#D5D7DA"/>
<circle cx="25.5" cy="266" r="2" fill="#D5D7DA"/>
<circle cx="89.5" cy="266" r="2" fill="#D5D7DA"/>
<circle cx="153.5" cy="266" r="2" fill="#D5D7DA"/>
<circle cx="217.5" cy="266" r="2" fill="#D5D7DA"/>
<circle cx="281.5" cy="266" r="2" fill="#D5D7DA"/>
<circle cx="345.5" cy="266" r="2" fill="#D5D7DA"/>
<circle cx="409.5" cy="266" r="2" fill="#D5D7DA"/>
<circle cx="473.5" cy="266" r="2" fill="#D5D7DA"/>
<circle cx="537.5" cy="266" r="2" fill="#D5D7DA"/>
<circle cx="601.5" cy="266" r="2" fill="#D5D7DA"/>
<circle cx="665.5" cy="266" r="2" fill="#D5D7DA"/>
<circle cx="729.5" cy="266" r="2" fill="#D5D7DA"/>
<circle cx="793.5" cy="266" r="2" fill="#D5D7DA"/>
<circle cx="857.5" cy="266" r="2" fill="#D5D7DA"/>
<circle cx="921.5" cy="266" r="2" fill="#D5D7DA"/>
<circle cx="985.5" cy="266" r="2" fill="#D5D7DA"/>
<circle cx="1049.5" cy="266" r="2" fill="#D5D7DA"/>
<circle cx="1113.5" cy="266" r="2" fill="#D5D7DA"/>
<circle cx="1177.5" cy="266" r="2" fill="#D5D7DA"/>
<circle cx="1241.5" cy="266" r="2" fill="#D5D7DA"/>
<circle cx="1305.5" cy="266" r="2" fill="#D5D7DA"/>
<circle cx="1369.5" cy="266" r="2" fill="#D5D7DA"/>
<circle cx="25.5" cy="310" r="2" fill="#D5D7DA"/>
<circle cx="89.5" cy="310" r="2" fill="#D5D7DA"/>
<circle cx="153.5" cy="310" r="2" fill="#D5D7DA"/>
<circle cx="217.5" cy="310" r="2" fill="#D5D7DA"/>
<circle cx="281.5" cy="310" r="2" fill="#D5D7DA"/>
<circle cx="345.5" cy="310" r="2" fill="#D5D7DA"/>
<circle cx="409.5" cy="310" r="2" fill="#D5D7DA"/>
<circle cx="473.5" cy="310" r="2" fill="#D5D7DA"/>
<circle cx="537.5" cy="310" r="2" fill="#D5D7DA"/>
<circle cx="601.5" cy="310" r="2" fill="#D5D7DA"/>
<circle cx="665.5" cy="310" r="2" fill="#D5D7DA"/>
<circle cx="729.5" cy="310" r="2" fill="#D5D7DA"/>
<circle cx="793.5" cy="310" r="2" fill="#D5D7DA"/>
<circle cx="857.5" cy="310" r="2" fill="#D5D7DA"/>
<circle cx="921.5" cy="310" r="2" fill="#D5D7DA"/>
<circle cx="985.5" cy="310" r="2" fill="#D5D7DA"/>
<circle cx="1049.5" cy="310" r="2" fill="#D5D7DA"/>
<circle cx="1113.5" cy="310" r="2" fill="#D5D7DA"/>
<circle cx="1177.5" cy="310" r="2" fill="#D5D7DA"/>
<circle cx="1241.5" cy="310" r="2" fill="#D5D7DA"/>
<circle cx="1305.5" cy="310" r="2" fill="#D5D7DA"/>
<circle cx="1369.5" cy="310" r="2" fill="#D5D7DA"/>
<circle cx="25.5" cy="354" r="2" fill="#D5D7DA"/>
<circle cx="89.5" cy="354" r="2" fill="#D5D7DA"/>
<circle cx="153.5" cy="354" r="2" fill="#D5D7DA"/>
<circle cx="217.5" cy="354" r="2" fill="#D5D7DA"/>
<circle cx="281.5" cy="354" r="2" fill="#D5D7DA"/>
<circle cx="345.5" cy="354" r="2" fill="#D5D7DA"/>
<circle cx="409.5" cy="354" r="2" fill="#D5D7DA"/>
<circle cx="473.5" cy="354" r="2" fill="#D5D7DA"/>
<circle cx="537.5" cy="354" r="2" fill="#D5D7DA"/>
<circle cx="601.5" cy="354" r="2" fill="#D5D7DA"/>
<circle cx="665.5" cy="354" r="2" fill="#D5D7DA"/>
<circle cx="729.5" cy="354" r="2" fill="#D5D7DA"/>
<circle cx="793.5" cy="354" r="2" fill="#D5D7DA"/>
<circle cx="857.5" cy="354" r="2" fill="#D5D7DA"/>
<circle cx="921.5" cy="354" r="2" fill="#D5D7DA"/>
<circle cx="985.5" cy="354" r="2" fill="#D5D7DA"/>
<circle cx="1049.5" cy="354" r="2" fill="#D5D7DA"/>
<circle cx="1113.5" cy="354" r="2" fill="#D5D7DA"/>
<circle cx="1177.5" cy="354" r="2" fill="#D5D7DA"/>
<circle cx="1241.5" cy="354" r="2" fill="#D5D7DA"/>
<circle cx="1305.5" cy="354" r="2" fill="#D5D7DA"/>
<circle cx="1369.5" cy="354" r="2" fill="#D5D7DA"/>
<circle cx="25.5" cy="398" r="2" fill="#D5D7DA"/>
<circle cx="89.5" cy="398" r="2" fill="#D5D7DA"/>
<circle cx="153.5" cy="398" r="2" fill="#D5D7DA"/>
<circle cx="217.5" cy="398" r="2" fill="#D5D7DA"/>
<circle cx="281.5" cy="398" r="2" fill="#D5D7DA"/>
<circle cx="345.5" cy="398" r="2" fill="#D5D7DA"/>
<circle cx="409.5" cy="398" r="2" fill="#D5D7DA"/>
<circle cx="473.5" cy="398" r="2" fill="#D5D7DA"/>
<circle cx="537.5" cy="398" r="2" fill="#D5D7DA"/>
<circle cx="601.5" cy="398" r="2" fill="#D5D7DA"/>
<circle cx="665.5" cy="398" r="2" fill="#D5D7DA"/>
<circle cx="729.5" cy="398" r="2" fill="#D5D7DA"/>
<circle cx="793.5" cy="398" r="2" fill="#D5D7DA"/>
<circle cx="857.5" cy="398" r="2" fill="#D5D7DA"/>
<circle cx="921.5" cy="398" r="2" fill="#D5D7DA"/>
<circle cx="985.5" cy="398" r="2" fill="#D5D7DA"/>
<circle cx="1049.5" cy="398" r="2" fill="#D5D7DA"/>
<circle cx="1113.5" cy="398" r="2" fill="#D5D7DA"/>
<circle cx="1177.5" cy="398" r="2" fill="#D5D7DA"/>
<circle cx="1241.5" cy="398" r="2" fill="#D5D7DA"/>
<circle cx="1305.5" cy="398" r="2" fill="#D5D7DA"/>
<circle cx="1369.5" cy="398" r="2" fill="#D5D7DA"/>
<circle cx="25.5" cy="442" r="2" fill="#D5D7DA"/>
<circle cx="89.5" cy="442" r="2" fill="#D5D7DA"/>
<circle cx="153.5" cy="442" r="2" fill="#D5D7DA"/>
<circle cx="217.5" cy="442" r="2" fill="#D5D7DA"/>
<circle cx="281.5" cy="442" r="2" fill="#D5D7DA"/>
<circle cx="345.5" cy="442" r="2" fill="#D5D7DA"/>
<circle cx="409.5" cy="442" r="2" fill="#D5D7DA"/>
<circle cx="473.5" cy="442" r="2" fill="#D5D7DA"/>
<circle cx="537.5" cy="442" r="2" fill="#D5D7DA"/>
<circle cx="601.5" cy="442" r="2" fill="#D5D7DA"/>
<circle cx="665.5" cy="442" r="2" fill="#D5D7DA"/>
<circle cx="729.5" cy="442" r="2" fill="#D5D7DA"/>
<circle cx="793.5" cy="442" r="2" fill="#D5D7DA"/>
<circle cx="857.5" cy="442" r="2" fill="#D5D7DA"/>
<circle cx="921.5" cy="442" r="2" fill="#D5D7DA"/>
<circle cx="985.5" cy="442" r="2" fill="#D5D7DA"/>
<circle cx="1049.5" cy="442" r="2" fill="#D5D7DA"/>
<circle cx="1113.5" cy="442" r="2" fill="#D5D7DA"/>
<circle cx="1177.5" cy="442" r="2" fill="#D5D7DA"/>
<circle cx="1241.5" cy="442" r="2" fill="#D5D7DA"/>
<circle cx="1305.5" cy="442" r="2" fill="#D5D7DA"/>
<circle cx="1369.5" cy="442" r="2" fill="#D5D7DA"/>
<circle cx="25.5" cy="486" r="2" fill="#D5D7DA"/>
<circle cx="89.5" cy="486" r="2" fill="#D5D7DA"/>
<circle cx="153.5" cy="486" r="2" fill="#D5D7DA"/>
<circle cx="217.5" cy="486" r="2" fill="#D5D7DA"/>
<circle cx="281.5" cy="486" r="2" fill="#D5D7DA"/>
<circle cx="345.5" cy="486" r="2" fill="#D5D7DA"/>
<circle cx="409.5" cy="486" r="2" fill="#D5D7DA"/>
<circle cx="473.5" cy="486" r="2" fill="#D5D7DA"/>
<circle cx="537.5" cy="486" r="2" fill="#D5D7DA"/>
<circle cx="601.5" cy="486" r="2" fill="#D5D7DA"/>
<circle cx="665.5" cy="486" r="2" fill="#D5D7DA"/>
<circle cx="729.5" cy="486" r="2" fill="#D5D7DA"/>
<circle cx="793.5" cy="486" r="2" fill="#D5D7DA"/>
<circle cx="857.5" cy="486" r="2" fill="#D5D7DA"/>
<circle cx="921.5" cy="486" r="2" fill="#D5D7DA"/>
<circle cx="985.5" cy="486" r="2" fill="#D5D7DA"/>
<circle cx="1049.5" cy="486" r="2" fill="#D5D7DA"/>
<circle cx="1113.5" cy="486" r="2" fill="#D5D7DA"/>
<circle cx="1177.5" cy="486" r="2" fill="#D5D7DA"/>
<circle cx="1241.5" cy="486" r="2" fill="#D5D7DA"/>
<circle cx="1305.5" cy="486" r="2" fill="#D5D7DA"/>
<circle cx="1369.5" cy="486" r="2" fill="#D5D7DA"/>
<circle cx="25.5" cy="530" r="2" fill="#D5D7DA"/>
<circle cx="89.5" cy="530" r="2" fill="#D5D7DA"/>
<circle cx="153.5" cy="530" r="2" fill="#D5D7DA"/>
<circle cx="217.5" cy="530" r="2" fill="#D5D7DA"/>
<circle cx="281.5" cy="530" r="2" fill="#D5D7DA"/>
<circle cx="345.5" cy="530" r="2" fill="#D5D7DA"/>
<circle cx="409.5" cy="530" r="2" fill="#D5D7DA"/>
<circle cx="473.5" cy="530" r="2" fill="#D5D7DA"/>
<circle cx="537.5" cy="530" r="2" fill="#D5D7DA"/>
<circle cx="601.5" cy="530" r="2" fill="#D5D7DA"/>
<circle cx="665.5" cy="530" r="2" fill="#D5D7DA"/>
<circle cx="729.5" cy="530" r="2" fill="#D5D7DA"/>
<circle cx="793.5" cy="530" r="2" fill="#D5D7DA"/>
<circle cx="857.5" cy="530" r="2" fill="#D5D7DA"/>
<circle cx="921.5" cy="530" r="2" fill="#D5D7DA"/>
<circle cx="985.5" cy="530" r="2" fill="#D5D7DA"/>
<circle cx="1049.5" cy="530" r="2" fill="#D5D7DA"/>
<circle cx="1113.5" cy="530" r="2" fill="#D5D7DA"/>
<circle cx="1177.5" cy="530" r="2" fill="#D5D7DA"/>
<circle cx="1241.5" cy="530" r="2" fill="#D5D7DA"/>
<circle cx="1305.5" cy="530" r="2" fill="#D5D7DA"/>
<circle cx="1369.5" cy="530" r="2" fill="#D5D7DA"/>
<circle cx="25.5" cy="574" r="2" fill="#D5D7DA"/>
<circle cx="89.5" cy="574" r="2" fill="#D5D7DA"/>
<circle cx="153.5" cy="574" r="2" fill="#D5D7DA"/>
<circle cx="217.5" cy="574" r="2" fill="#D5D7DA"/>
<circle cx="281.5" cy="574" r="2" fill="#D5D7DA"/>
<circle cx="345.5" cy="574" r="2" fill="#D5D7DA"/>
<circle cx="409.5" cy="574" r="2" fill="#D5D7DA"/>
<circle cx="473.5" cy="574" r="2" fill="#D5D7DA"/>
<circle cx="537.5" cy="574" r="2" fill="#D5D7DA"/>
<circle cx="601.5" cy="574" r="2" fill="#D5D7DA"/>
<circle cx="665.5" cy="574" r="2" fill="#D5D7DA"/>
<circle cx="729.5" cy="574" r="2" fill="#D5D7DA"/>
<circle cx="793.5" cy="574" r="2" fill="#D5D7DA"/>
<circle cx="857.5" cy="574" r="2" fill="#D5D7DA"/>
<circle cx="921.5" cy="574" r="2" fill="#D5D7DA"/>
<circle cx="985.5" cy="574" r="2" fill="#D5D7DA"/>
<circle cx="1049.5" cy="574" r="2" fill="#D5D7DA"/>
<circle cx="1113.5" cy="574" r="2" fill="#D5D7DA"/>
<circle cx="1177.5" cy="574" r="2" fill="#D5D7DA"/>
<circle cx="1241.5" cy="574" r="2" fill="#D5D7DA"/>
<circle cx="1305.5" cy="574" r="2" fill="#D5D7DA"/>
<circle cx="1369.5" cy="574" r="2" fill="#D5D7DA"/>
<circle cx="25.5" cy="618" r="2" fill="#D5D7DA"/>
<circle cx="89.5" cy="618" r="2" fill="#D5D7DA"/>
<circle cx="153.5" cy="618" r="2" fill="#D5D7DA"/>
<circle cx="217.5" cy="618" r="2" fill="#D5D7DA"/>
<circle cx="281.5" cy="618" r="2" fill="#D5D7DA"/>
<circle cx="345.5" cy="618" r="2" fill="#D5D7DA"/>
<circle cx="409.5" cy="618" r="2" fill="#D5D7DA"/>
<circle cx="473.5" cy="618" r="2" fill="#D5D7DA"/>
<circle cx="537.5" cy="618" r="2" fill="#D5D7DA"/>
<circle cx="601.5" cy="618" r="2" fill="#D5D7DA"/>
<circle cx="665.5" cy="618" r="2" fill="#D5D7DA"/>
<circle cx="729.5" cy="618" r="2" fill="#D5D7DA"/>
<circle cx="793.5" cy="618" r="2" fill="#D5D7DA"/>
<circle cx="857.5" cy="618" r="2" fill="#D5D7DA"/>
<circle cx="921.5" cy="618" r="2" fill="#D5D7DA"/>
<circle cx="985.5" cy="618" r="2" fill="#D5D7DA"/>
<circle cx="1049.5" cy="618" r="2" fill="#D5D7DA"/>
<circle cx="1113.5" cy="618" r="2" fill="#D5D7DA"/>
<circle cx="1177.5" cy="618" r="2" fill="#D5D7DA"/>
<circle cx="1241.5" cy="618" r="2" fill="#D5D7DA"/>
<circle cx="1305.5" cy="618" r="2" fill="#D5D7DA"/>
<circle cx="1369.5" cy="618" r="2" fill="#D5D7DA"/>
<circle cx="25.5" cy="662" r="2" fill="#D5D7DA"/>
<circle cx="89.5" cy="662" r="2" fill="#D5D7DA"/>
<circle cx="153.5" cy="662" r="2" fill="#D5D7DA"/>
<circle cx="217.5" cy="662" r="2" fill="#D5D7DA"/>
<circle cx="281.5" cy="662" r="2" fill="#D5D7DA"/>
<circle cx="345.5" cy="662" r="2" fill="#D5D7DA"/>
<circle cx="409.5" cy="662" r="2" fill="#D5D7DA"/>
<circle cx="473.5" cy="662" r="2" fill="#D5D7DA"/>
<circle cx="537.5" cy="662" r="2" fill="#D5D7DA"/>
<circle cx="601.5" cy="662" r="2" fill="#D5D7DA"/>
<circle cx="665.5" cy="662" r="2" fill="#D5D7DA"/>
<circle cx="729.5" cy="662" r="2" fill="#D5D7DA"/>
<circle cx="793.5" cy="662" r="2" fill="#D5D7DA"/>
<circle cx="857.5" cy="662" r="2" fill="#D5D7DA"/>
<circle cx="921.5" cy="662" r="2" fill="#D5D7DA"/>
<circle cx="985.5" cy="662" r="2" fill="#D5D7DA"/>
<circle cx="1049.5" cy="662" r="2" fill="#D5D7DA"/>
<circle cx="1113.5" cy="662" r="2" fill="#D5D7DA"/>
<circle cx="1177.5" cy="662" r="2" fill="#D5D7DA"/>
<circle cx="1241.5" cy="662" r="2" fill="#D5D7DA"/>
<circle cx="1305.5" cy="662" r="2" fill="#D5D7DA"/>
<circle cx="1369.5" cy="662" r="2" fill="#D5D7DA"/>
<circle cx="25.5" cy="706" r="2" fill="#D5D7DA"/>
<circle cx="89.5" cy="706" r="2" fill="#D5D7DA"/>
<circle cx="153.5" cy="706" r="2" fill="#D5D7DA"/>
<circle cx="217.5" cy="706" r="2" fill="#D5D7DA"/>
<circle cx="281.5" cy="706" r="2" fill="#D5D7DA"/>
<circle cx="345.5" cy="706" r="2" fill="#D5D7DA"/>
<circle cx="409.5" cy="706" r="2" fill="#D5D7DA"/>
<circle cx="473.5" cy="706" r="2" fill="#D5D7DA"/>
<circle cx="537.5" cy="706" r="2" fill="#D5D7DA"/>
<circle cx="601.5" cy="706" r="2" fill="#D5D7DA"/>
<circle cx="665.5" cy="706" r="2" fill="#D5D7DA"/>
<circle cx="729.5" cy="706" r="2" fill="#D5D7DA"/>
<circle cx="793.5" cy="706" r="2" fill="#D5D7DA"/>
<circle cx="857.5" cy="706" r="2" fill="#D5D7DA"/>
<circle cx="921.5" cy="706" r="2" fill="#D5D7DA"/>
<circle cx="985.5" cy="706" r="2" fill="#D5D7DA"/>
<circle cx="1049.5" cy="706" r="2" fill="#D5D7DA"/>
<circle cx="1113.5" cy="706" r="2" fill="#D5D7DA"/>
<circle cx="1177.5" cy="706" r="2" fill="#D5D7DA"/>
<circle cx="1241.5" cy="706" r="2" fill="#D5D7DA"/>
<circle cx="1305.5" cy="706" r="2" fill="#D5D7DA"/>
<circle cx="1369.5" cy="706" r="2" fill="#D5D7DA"/>
<circle cx="25.5" cy="750" r="2" fill="#D5D7DA"/>
<circle cx="89.5" cy="750" r="2" fill="#D5D7DA"/>
<circle cx="153.5" cy="750" r="2" fill="#D5D7DA"/>
<circle cx="217.5" cy="750" r="2" fill="#D5D7DA"/>
<circle cx="281.5" cy="750" r="2" fill="#D5D7DA"/>
<circle cx="345.5" cy="750" r="2" fill="#D5D7DA"/>
<circle cx="409.5" cy="750" r="2" fill="#D5D7DA"/>
<circle cx="473.5" cy="750" r="2" fill="#D5D7DA"/>
<circle cx="537.5" cy="750" r="2" fill="#D5D7DA"/>
<circle cx="601.5" cy="750" r="2" fill="#D5D7DA"/>
<circle cx="665.5" cy="750" r="2" fill="#D5D7DA"/>
<circle cx="729.5" cy="750" r="2" fill="#D5D7DA"/>
<circle cx="793.5" cy="750" r="2" fill="#D5D7DA"/>
<circle cx="857.5" cy="750" r="2" fill="#D5D7DA"/>
<circle cx="921.5" cy="750" r="2" fill="#D5D7DA"/>
<circle cx="985.5" cy="750" r="2" fill="#D5D7DA"/>
<circle cx="1049.5" cy="750" r="2" fill="#D5D7DA"/>
<circle cx="1113.5" cy="750" r="2" fill="#D5D7DA"/>
<circle cx="1177.5" cy="750" r="2" fill="#D5D7DA"/>
<circle cx="1241.5" cy="750" r="2" fill="#D5D7DA"/>
<circle cx="1305.5" cy="750" r="2" fill="#D5D7DA"/>
<circle cx="1369.5" cy="750" r="2" fill="#D5D7DA"/>
</svg>
