<svg width="199" height="42" viewBox="0 0 199 42" fill="none" xmlns="http://www.w3.org/2000/svg">
<path d="M2.18566 8.59922H8.74263L15.668 25.4951H15.9627L22.888 8.59922H29.445V33.7466H24.2878V17.3787H24.0791L17.5712 33.6238H14.0594L7.55157 17.3173H7.34283V33.7466H2.18566V8.59922ZM45.8221 25.7161V14.8861H51.0529V33.7466H46.0308V30.3207H45.8344C45.4087 31.4258 44.7006 32.314 43.7101 32.9853C42.7278 33.6565 41.5285 33.9921 40.1123 33.9921C38.8517 33.9921 37.7425 33.7056 36.7847 33.1326C35.827 32.5596 35.078 31.7451 34.5377 30.6891C34.0056 29.6331 33.7355 28.3684 33.7273 26.8949V14.8861H38.9581V25.9617C38.9663 27.075 39.2651 27.955 39.8545 28.6017C40.4439 29.2484 41.2338 29.5717 42.2243 29.5717C42.8547 29.5717 43.444 29.4285 43.9925 29.1419C44.541 28.8472 44.983 28.4134 45.3186 27.8404C45.6624 27.2674 45.8303 26.5593 45.8221 25.7161ZM60.4678 8.59922V33.7466H55.237V8.59922H60.4678ZM74.6899 14.8861V18.8153H63.3319V14.8861H74.6899ZM65.9105 10.3674H71.1413V27.9509C71.1413 28.4339 71.215 28.8104 71.3623 29.0805C71.5097 29.3425 71.7143 29.5267 71.9763 29.6331C72.2464 29.7395 72.5575 29.7927 72.9095 29.7927C73.1551 29.7927 73.4007 29.7723 73.6462 29.7313C73.8918 29.6822 74.0801 29.6454 74.2111 29.6208L75.0338 33.5133C74.7718 33.5951 74.4034 33.6893 73.9286 33.7957C73.4539 33.9103 72.8767 33.9799 72.1973 34.0044C70.9367 34.0535 69.8316 33.8857 68.882 33.501C67.9406 33.1162 67.208 32.5187 66.6841 31.7083C66.1601 30.8978 65.9023 29.8746 65.9105 28.6385V10.3674ZM78.0974 33.7466V14.8861H83.3282V33.7466H78.0974ZM80.7251 12.4548C79.9474 12.4548 79.2802 12.197 78.7236 11.6812C78.1751 11.1573 77.9009 10.5311 77.9009 9.80256C77.9009 9.08219 78.1751 8.46415 78.7236 7.94843C79.2802 7.42453 79.9474 7.16258 80.7251 7.16258C81.5027 7.16258 82.1658 7.42453 82.7143 7.94843C83.2709 8.46415 83.5492 9.08219 83.5492 9.80256C83.5492 10.5311 83.2709 11.1573 82.7143 11.6812C82.1658 12.197 81.5027 12.4548 80.7251 12.4548Z" fill="#3E4B56"/>
<path d="M86 34.3306H90.4457L93.4095 19.0177L100.325 34.3306H104.771L109.216 13.5841L112.18 14.572L108.722 7.1625L101.807 12.5961H104.771L101.807 26.4272L94.8914 11.1142H90.4457L86 34.3306Z" fill="#6C63FF"/>
<path d="M126.362 25.7161V14.8861H131.593V33.7466H126.571V30.3207H126.375C125.949 31.4258 125.241 32.314 124.25 32.9853C123.268 33.6565 122.069 33.9921 120.653 33.9921C119.392 33.9921 118.283 33.7056 117.325 33.1326C116.367 32.5596 115.618 31.7451 115.078 30.6891C114.546 29.6331 114.276 28.3684 114.268 26.8949V14.8861H119.498V25.9617C119.507 27.075 119.805 27.955 120.395 28.6017C120.984 29.2484 121.774 29.5717 122.765 29.5717C123.395 29.5717 123.984 29.4285 124.533 29.1419C125.081 28.8472 125.523 28.4134 125.859 27.8404C126.203 27.2674 126.371 26.5593 126.362 25.7161ZM142.727 34.0535C141.295 34.0535 139.997 33.6852 138.835 32.9484C137.681 32.2035 136.764 31.1107 136.084 29.6699C135.413 28.221 135.077 26.4447 135.077 24.3409C135.077 22.1798 135.425 20.3829 136.121 18.9504C136.817 17.5097 137.742 16.4332 138.896 15.721C140.059 15.0007 141.331 14.6405 142.715 14.6405C143.771 14.6405 144.651 14.8206 145.355 15.1807C146.067 15.5327 146.64 15.9748 147.074 16.5069C147.516 17.0308 147.852 17.5465 148.081 18.054H148.24V8.59922H153.459V33.7466H148.302V30.7259H148.081C147.835 31.2498 147.487 31.7696 147.037 32.2854C146.595 32.7929 146.018 33.2145 145.306 33.5501C144.602 33.8857 143.742 34.0535 142.727 34.0535ZM144.385 29.891C145.228 29.891 145.94 29.6618 146.521 29.2033C147.111 28.7367 147.561 28.086 147.872 27.251C148.191 26.416 148.351 25.4378 148.351 24.3163C148.351 23.1948 148.195 22.2207 147.884 21.3939C147.573 20.5671 147.123 19.9286 146.534 19.4784C145.944 19.0282 145.228 18.803 144.385 18.803C143.525 18.803 142.801 19.0363 142.211 19.5029C141.622 19.9695 141.176 20.6162 140.873 21.443C140.57 22.2698 140.419 23.2276 140.419 24.3163C140.419 25.4132 140.57 26.3833 140.873 27.2264C141.184 28.0614 141.63 28.7163 142.211 29.1911C142.801 29.6577 143.525 29.891 144.385 29.891ZM166.257 41.2122C164.562 41.2122 163.109 40.9789 161.898 40.5123C160.694 40.0539 159.737 39.4276 159.024 38.6336C158.312 37.8396 157.85 36.9473 157.637 35.9568L162.475 35.306C162.622 35.6825 162.856 36.0345 163.175 36.362C163.494 36.6894 163.916 36.9514 164.439 37.1478C164.972 37.3525 165.618 37.4548 166.38 37.4548C167.517 37.4548 168.455 37.1765 169.191 36.6198C169.936 36.0714 170.309 35.1505 170.309 33.8571V30.4067H170.088C169.859 30.9306 169.515 31.4258 169.056 31.8924C168.598 32.359 168.009 32.7397 167.288 33.0344C166.568 33.3291 165.708 33.4764 164.71 33.4764C163.293 33.4764 162.004 33.149 160.842 32.4941C159.688 31.831 158.767 30.8201 158.079 29.4612C157.4 28.0941 157.06 26.3669 157.06 24.2795C157.06 22.1429 157.408 20.3584 158.104 18.9258C158.799 17.4933 159.724 16.4209 160.879 15.7087C162.041 14.9966 163.314 14.6405 164.697 14.6405C165.753 14.6405 166.637 14.8206 167.35 15.1807C168.062 15.5327 168.635 15.9748 169.069 16.5069C169.511 17.0308 169.85 17.5465 170.088 18.054H170.284V14.8861H175.478V33.9307C175.478 35.5352 175.085 36.8777 174.3 37.9583C173.514 39.0388 172.425 39.8492 171.033 40.3895C169.65 40.9379 168.058 41.2122 166.257 41.2122ZM166.367 29.5472C167.21 29.5472 167.923 29.3384 168.504 28.9209C169.093 28.4953 169.543 27.8895 169.855 27.1036C170.174 26.3096 170.333 25.36 170.333 24.2549C170.333 23.1498 170.178 22.192 169.867 21.3816C169.556 20.563 169.106 19.9286 168.516 19.4784C167.927 19.0282 167.21 18.803 166.367 18.803C165.508 18.803 164.783 19.0363 164.194 19.5029C163.605 19.9614 163.158 20.5999 162.856 21.4185C162.553 22.2371 162.401 23.1825 162.401 24.2549C162.401 25.3436 162.553 26.285 162.856 27.0791C163.167 27.8649 163.613 28.4748 164.194 28.9086C164.783 29.3343 165.508 29.5472 166.367 29.5472ZM188.236 34.1149C186.296 34.1149 184.626 33.722 183.226 32.9361C181.835 32.1421 180.762 31.0206 180.009 29.5717C179.256 28.1146 178.88 26.3915 178.88 24.4023C178.88 22.4622 179.256 20.7595 180.009 19.2942C180.762 17.8289 181.822 16.687 183.19 15.8684C184.565 15.0498 186.177 14.6405 188.027 14.6405C189.272 14.6405 190.43 14.841 191.502 15.2421C192.583 15.6351 193.524 16.2286 194.327 17.0226C195.137 17.8166 195.767 18.8153 196.217 20.0187C196.668 21.2138 196.893 22.6136 196.893 24.2181V25.6547H180.967V22.4131H191.969C191.969 21.66 191.805 20.9928 191.478 20.4116C191.15 19.8304 190.696 19.3761 190.115 19.0486C189.542 18.713 188.875 18.5452 188.113 18.5452C187.319 18.5452 186.615 18.7294 186.001 19.0977C185.396 19.4579 184.921 19.945 184.577 20.5589C184.233 21.1647 184.057 21.84 184.049 22.585V25.667C184.049 26.6002 184.221 27.4065 184.565 28.086C184.917 28.7654 185.412 29.2893 186.051 29.6577C186.689 30.026 187.446 30.2102 188.322 30.2102C188.903 30.2102 189.435 30.1284 189.918 29.9646C190.401 29.8009 190.815 29.5553 191.159 29.2279C191.502 28.9005 191.764 28.4993 191.944 28.0246L196.782 28.3438C196.537 29.5062 196.033 30.5213 195.272 31.389C194.519 32.2485 193.545 32.9198 192.35 33.4027C191.163 33.8775 189.791 34.1149 188.236 34.1149Z" fill="#6C63FF"/>
</svg>
