<svg xmlns="http://www.w3.org/2000/svg" width="2000" height="2000" viewBox="0 0 2000 2000">
  <defs>
    <style>
      .cls-1 {
        fill: #ff9000;
      }

      .cls-1, .cls-2, .cls-3 {
        fill-rule: evenodd;
      }

      .cls-2 {
        fill: #003fc7;
      }

      .cls-3 {
        fill: #06235c;
      }
    </style>
  </defs>
  <path id="Trades_" data-name="Trades " class="cls-1" d="M456.234,1333.29H321.2v26h53.6v139.63h27.835V1359.29h53.6v-26Zm62.109,38.19a44.228,44.228,0,0,0-23.694,7.36,39.587,39.587,0,0,0-12.422,13.12V1374.7H457.612v124.22h27.835v-64.41c0-11.5,2.07-21.16,9.2-28.52,4.6-4.83,11.732-8.05,20.934-8.74,8.281-.46,16.332.69,22.314,3.22V1374.7A44.913,44.913,0,0,0,518.343,1371.48Zm132.732,127.44v-74.76c0-15.41-3.91-29.67-15.873-39.8a56.152,56.152,0,0,0-35.426-13.11c-21.624,0-37.727,7.36-50.839,20.71l16.333,18.4c8.741-8.74,19.783-12.88,32.206-12.88,15.412,0,24.384,7.13,25.994,18.86-18.863,2.76-44.4,5.29-60.041,12.42-15.642,7.36-21.854,19.33-21.854,35.43,0,23.23,16.1,38.18,40.948,38.18,19.553,0,32.206-4.83,44.4-19.78v16.33h24.154Zm-31.746-35.88c-5.981,9.66-17.023,16.1-30.365,16.1-11.5,0-20.014-7.13-20.014-17.02,0-9.66,9.432-14.95,20.474-17.26,10.812-2.53,23.464-4.83,34.276-6.67C623.7,1446.93,623.7,1455.68,619.329,1463.04Zm140.78-129.75v48.31a59.076,59.076,0,0,0-33.356-10.35c-17.023,0-33.356,6.67-43.938,19.78-9.662,12.43-14.262,28.76-14.262,45.78,0,16.8,3.91,32.67,14.262,45.78,10.352,12.65,26.455,19.78,43.018,19.78,14.493,0,27.835-4.14,37.727-13.11v9.66h24.384V1333.29H760.109Zm-5.751,134.12c-5.981,6.9-14.493,10.12-24.384,10.12-9.662,0-19.324-3.45-25.075-11.96-5.061-7.13-6.9-17.71-6.9-28.76,0-11.27,2.3-21.62,7.361-28.75,5.751-8.51,14.723-11.96,25.535-11.96,9.432,0,17.943,3.22,23.464,9.89,6.211,7.59,8.972,19.09,8.972,30.82S760.569,1460.28,754.358,1467.41Zm83.268-22.78h89.717c1.61-20.93-1.611-39.56-13.573-53.83-11.272-13.57-25.994-19.55-44.168-19.55-18.4,0-35.656,6.9-46.928,20.48-10.122,12.19-14.953,28.75-14.953,46.46,0,15.65,4.831,31.06,14.953,43.48,11.042,13.57,29.9,20.7,48.309,20.7a63.759,63.759,0,0,0,33.125-9.43,58.5,58.5,0,0,0,21.854-25.99l-27.375-8.28c-1.84,4.14-4.83,8.05-9.891,11.96s-11.5,5.75-19.094,5.75c-10.122,0-19.323-3.91-25.074-11.5C840.157,1459.36,838.317,1452,837.626,1444.63Zm31.976-49.22c9.432,0,18.634,3.45,24.155,10.35,3.68,5.06,5.291,10.58,5.751,17.02H838.087a34.409,34.409,0,0,1,6.671-16.1C851.429,1398.4,860.4,1395.41,869.6,1395.41Zm176.9,11.96c-4.37-12.65-14.26-24.16-26.23-29.91a57.914,57.914,0,0,0-26.451-6.21c-8.512,0-17.483.46-26.915,4.6-12.422,5.52-21.854,17.26-21.854,32.21,0,5.75,1.84,14.72,6.671,20.24,5.061,5.98,13.573,10.12,20.7,13.11,4.831,1.61,9.432,2.76,30.135,8.75,9.89,2.76,19.78,5.06,19.78,13.8,0,4.14-1.84,7.13-5.75,9.66-4.14,3.22-13.34,4.6-18.86,4.6-8.972,0-17.714-2.3-24.155-8.74-3.45-3.68-6.441-9.66-8.051-15.18l-24.845,6.67c2.071,8.05,5.291,16.56,13.343,25.3,11.042,12.19,25.994,16.1,43.248,16.1,11.96,0,22.54-1.61,32.9-8.28a36.015,36.015,0,0,0,17.25-30.36c0-20.02-15.64-32.67-38.42-38.88l-23.693-6.67c-8.741-2.3-15.182-4.37-15.182-11.04,0-7.59,11.272-12.42,22.314-11.96,12.421,0.46,23,5.75,28.061,18.63Z"/>
  <path id="_Quote" data-name=" Quote" class="cls-2" d="M1218.63,1413.11c-0.23-21.85-5.06-42.33-18.86-59.58-14.49-17.71-36.58-26.69-60.27-26.69s-46.01,8.75-60.27,26.69c-13.34,16.33-19.1,37.73-19.1,59.58s5.76,43.02,19.1,59.35c14.03,17.94,36.57,26.91,60.27,26.91,15.87,0,31.51-4.14,44.63-12.65l12.65,12.65,17.02-17.48-11.96-11.96C1213.8,1453.6,1218.4,1434.5,1218.63,1413.11Zm-79.13,60.04c-15.18,0-29.68-5.75-38.42-17.48-8.97-11.74-11.73-27.38-11.73-42.56-0.23-15.18,2.76-31.06,11.73-42.56,8.74-11.73,23.24-17.71,38.42-17.48,14.95,0,29.44,5.75,38.19,17.48,8.74,11.5,11.73,27.38,11.73,42.56,0,12.65-2.07,25.76-7.82,36.58l-14.73-14.73-17.48,17.26,14.95,14.95A48.45,48.45,0,0,1,1139.5,1473.15Zm182.65-101.45v54.29c0,8.74,0,18.41-1.38,24.39-1.38,7.36-4.83,13.34-9.67,17.25a28.631,28.631,0,0,1-16.33,5.75c-8.74.23-15.87-2.3-20.7-7.13-8.05-7.36-9.89-21.16-9.89-35.66V1371.7h-28.07v60.04c0,20.02.46,41.87,14.95,54.98,11.74,11.04,26,13.35,40.03,12.42,11.27-.46,23.7-4.6,31.75-14.03a40.044,40.044,0,0,1,2.76-3.22v14.03h24.61V1371.7h-28.06Zm109.72,127.67c18.41,0,35.43-6.9,46.93-20.7,10.58-13.11,14.95-27.6,14.95-44.86,0-16.56-4.14-31.97-14.95-45.08-11.27-13.58-28.75-20.48-46.93-20.48s-35.88,7.13-46.93,20.48c-10.12,12.19-14.95,27.83-14.95,45.08,0,16.8,4.37,31.98,14.95,44.86C1396.22,1492.24,1413.47,1499.37,1431.87,1499.37Zm32.67-65.56c0,10.12-2.07,20.48-7.82,28.07-5.52,7.59-14.96,11.5-24.85,11.5-10.12,0-19.32-3.91-24.84-11.5-5.98-7.59-7.59-17.95-7.59-28.07,0-10.35,1.61-20.7,7.59-28.29,5.52-7.59,14.72-11.27,24.84-11.27,9.89,0,19.33,3.68,24.85,11.27C1462.47,1413.11,1464.54,1423.46,1464.54,1433.81Zm85.34-40.48h36.58V1371.7h-36.58v-34.5h-27.6v34.5h-22.55v21.63h22.55v51.76c0,14.26-1.16,26.45,5.06,36.11,6.44,9.89,13.8,13.8,25.07,15.64,8.97,1.61,24.62,1.61,34.05-.92v-23.23a103.381,103.381,0,0,1-20.48.92c-5.06-.46-10.58-2.53-13.57-7.59-2.99-4.83-2.53-12.65-2.53-22.32v-50.37Zm74.3,48.3h89.72c1.61-20.93-1.61-39.56-13.58-53.83-11.27-13.57-25.99-19.55-44.16-19.55-18.41,0-35.66,6.9-46.93,20.48-10.12,12.19-14.95,28.75-14.95,46.46,0,15.65,4.83,31.06,14.95,43.48,11.04,13.57,29.9,20.7,48.31,20.7a63.744,63.744,0,0,0,33.12-9.43,58.524,58.524,0,0,0,21.86-25.99l-27.38-8.28c-1.84,4.14-4.83,8.05-9.89,11.96s-11.5,5.75-19.09,5.75c-10.13,0-19.33-3.91-25.08-11.5C1626.71,1456.36,1624.87,1449,1624.18,1441.63Zm31.98-49.22c9.43,0,18.63,3.45,24.15,10.35,3.68,5.06,5.29,10.58,5.75,17.02h-61.42a34.418,34.418,0,0,1,6.67-16.1C1637.98,1395.4,1646.96,1392.41,1656.16,1392.41Z"/>
  <path class="cls-2" d="M1322,878l69-68s-140.89-174.557-355.82-41c-1.06.658-2.16,1.258-3.18,2-10.36,7.523-215,165.105-34.739,392.58,0.189,0.23.378,0.47,0.568,0.71A23.01,23.01,0,0,0,1000,1167c8.87,8.17,156.66,157.32,331.68,41.23,1.11-.73,2.35-3.16,3.32-2.23,4.92,4.73,43,42,43,42l132-1-104-109s112.32-148.131-.2-308.861c-0.27-.38-0.46-1.454-0.8-1.139-1.81,1.664-202,204-202,204l-52-52-40,40,92,94,152-152s17.42,73.93-38.14,133.09c-0.29.31-.54,1.17-0.86,0.91-3.85-3.15-19-19-19-19l-49,45,15,17s-164.53,70.91-231.95-105.22c-0.35-.92-0.74-1.83-1.05-2.78-1.21-3.68-39.037-130.537,86.5-197.682,0.83-.442,1.63-0.935,2.5-1.318C1120.72,831.239,1224.36,772.148,1322,878Z"/>
  <path class="cls-3" d="M538,727h488s-63.484,43.934-89.431,91.068c-0.9,1.641-.78,4.528-2.569,4.932-3.248.734-126,1-126,1v408l-106,2-1-412-164-1"/>
  <path class="cls-2" d="M1350,695l-792,1s-3.654-31.513,21-44a283.625,283.625,0,0,0,43-27s5.424-99.176,76.57-177.44A18.824,18.824,0,0,0,700,446c1.972-2.727,50.611-64.229,131.9-92.618,0.367-.128.737-0.248,1.1-0.382,1.868-.688,14,191,14,191h24l-4-217s2.562-19.406,18.1-20.933c0.3-.029.6-0.009,0.9-0.067,1.391-.269,71.662-15.255,148.28-0.339,0.57,0.111,1.16.172,1.72,0.339,2.08,0.617,19.87,3.983,19,24s-5,214-5,214h21l22-190s169.23,35.877,203.49,287.155c0.17,1.276-.68,3.329.51,3.845C1299.21,645.958,1355.76,639.964,1350,695Z"/>
</svg>
