<svg xmlns="http://www.w3.org/2000/svg" width="1768" height="544" viewBox="116 684 1768 544">
  <defs>
    <style>
      .cls-1 {
        fill: #ff9000;
      }

      .cls-1, .cls-2, .cls-3 {
        fill-rule: evenodd;
      }

      .cls-2 {
        fill: #003fc7;
      }

      .cls-3 {
        fill: #06235c;
      }
    </style>
  </defs>
  <path id="Trades_" data-name="Trades " class="cls-1" d="M735.307,968.282H613.8v23.389h48.228V1117.31h25.046V991.671h48.228V968.282Zm55.884,34.358a39.794,39.794,0,0,0-21.319,6.63,35.642,35.642,0,0,0-11.177,11.79v-15.52H736.547v111.77h25.045v-57.95c0-10.35,1.863-19.05,8.28-25.67,4.14-4.35,10.556-7.24,18.836-7.87,7.451-.41,14.7.63,20.077,2.9v-23.18A40.414,40.414,0,0,0,791.191,1002.64Zm119.431,114.67v-67.27c0-13.87-3.519-26.7-14.283-35.81a50.522,50.522,0,0,0-31.876-11.8c-19.456,0-33.946,6.63-45.744,18.63l14.7,16.56c7.866-7.86,17.8-11.59,28.979-11.59,13.868,0,21.94,6.42,23.389,16.97-16.973,2.49-39.948,4.76-54.024,11.18-14.075,6.63-19.663,17.39-19.663,31.88,0,20.9,14.489,34.36,36.843,34.36,17.594,0,28.979-4.35,39.949-17.8v14.69h21.734Zm-28.565-32.29c-5.381,8.7-15.317,14.49-27.322,14.49-10.349,0-18.008-6.41-18.008-15.32,0-8.69,8.487-13.45,18.422-15.52,9.728-2.28,21.113-4.35,30.841-6C885.99,1070.53,885.99,1078.4,882.057,1085.02ZM1008.73,968.282v43.468a53.132,53.132,0,0,0-30.015-9.32c-15.317,0-30.013,6.01-39.534,17.81-8.694,11.17-12.834,25.87-12.834,41.19,0,15.11,3.519,29.39,12.834,41.19,9.314,11.38,23.8,17.8,38.706,17.8,13.04,0,25.043-3.73,33.943-11.8v8.69h21.94V968.282h-25.04Zm-5.18,120.678c-5.378,6.2-13.037,9.1-21.937,9.1-8.693,0-17.387-3.1-22.562-10.76-4.553-6.42-6.209-15.94-6.209-25.87,0-10.15,2.07-19.46,6.623-25.88,5.175-7.66,13.248-10.76,22.976-10.76,8.486,0,16.145,2.9,21.109,8.9,5.59,6.83,8.08,17.18,8.08,27.74S1009.14,1082.54,1003.55,1088.96Zm74.93-20.5h80.72c1.45-18.83-1.45-35.6-12.21-48.43-10.14-12.21-23.39-17.6-39.74-17.6-16.56,0-32.08,6.21-42.23,18.43-9.1,10.97-13.45,25.87-13.45,41.81a61.549,61.549,0,0,0,13.45,39.12c9.94,12.21,26.91,18.63,43.47,18.63a57.406,57.406,0,0,0,29.81-8.49,52.623,52.623,0,0,0,19.66-23.39l-24.63-7.45a27.757,27.757,0,0,1-8.9,10.76c-4.56,3.52-10.35,5.18-17.18,5.18-9.11,0-17.39-3.52-22.56-10.35C1080.75,1081.71,1079.1,1075.09,1078.48,1068.46Zm28.77-44.29c8.48,0,16.76,3.1,21.73,9.31,3.31,4.56,4.76,9.52,5.18,15.32h-55.27a31.034,31.034,0,0,1,6-14.49C1090.9,1026.86,1098.97,1024.17,1107.25,1024.17Zm159.17,10.76c-3.94-11.38-12.84-21.73-23.6-26.91a52.162,52.162,0,0,0-23.8-5.59c-7.66,0-15.73.42-24.22,4.14-11.18,4.97-19.67,15.53-19.67,28.98,0,5.18,1.66,13.25,6.01,18.22,4.55,5.38,12.21,9.11,18.63,11.8,4.34,1.44,8.48,2.48,27.11,7.86,8.9,2.49,17.8,4.56,17.8,12.42,0,3.73-1.65,6.42-5.17,8.69-3.73,2.9-12.01,4.14-16.97,4.14-8.08,0-15.94-2.07-21.74-7.86-3.1-3.31-5.79-8.7-7.24-13.66l-22.36,6c1.87,7.24,4.76,14.9,12.01,22.77,9.93,10.97,23.39,14.49,38.91,14.49,10.76,0,20.29-1.45,29.6-7.45a32.43,32.43,0,0,0,15.52-27.33c0-18-14.07-29.39-34.56-34.98l-21.32-6c-7.87-2.07-13.66-3.93-13.66-9.94,0-6.83,10.14-11.17,20.07-10.76,11.18,0.42,20.7,5.18,25.26,16.77Z"/>
  <path id="_Quote" data-name=" Quote" class="cls-2" d="M1421.3,1040.1c-0.21-19.67-4.55-38.09-16.97-53.612-13.04-15.938-32.91-24.01-54.23-24.01s-41.4,7.865-54.23,24.01c-12.01,14.692-17.18,33.942-17.18,53.612s5.17,38.7,17.18,53.4c12.62,16.15,32.91,24.22,54.23,24.22a73.665,73.665,0,0,0,40.15-11.39l11.39,11.39,15.31-15.73-10.76-10.77C1416.95,1076.53,1421.09,1059.35,1421.3,1040.1Zm-71.2,54.02c-13.66,0-26.71-5.17-34.57-15.73-8.07-10.56-10.56-24.63-10.56-38.29-0.2-13.66,2.49-27.95,10.56-38.29,7.86-10.561,20.91-15.943,34.57-15.736,13.45,0,26.49,5.175,34.36,15.736,7.86,10.34,10.55,24.63,10.55,38.29,0,11.38-1.86,23.18-7.04,32.91l-13.24-13.25L1359,1075.29l13.45,13.45A43.517,43.517,0,0,1,1350.1,1094.12Zm164.34-91.28v48.85c0,7.86,0,16.56-1.24,21.94-1.24,6.62-4.35,12.01-8.7,15.52a25.733,25.733,0,0,1-14.69,5.18c-7.87.21-14.28-2.07-18.63-6.42-7.25-6.62-8.9-19.04-8.9-32.08v-52.99h-25.25v54.02c0,18.01.41,37.68,13.45,49.47,10.56,9.94,23.39,12.01,36.02,11.18,10.14-.41,21.32-4.14,28.56-12.63,0.83-1.03,1.66-2.06,2.48-2.89v12.62h22.15V1002.84h-25.25Zm98.73,114.88c16.56,0,31.87-6.21,42.22-18.63,9.53-11.8,13.46-24.84,13.46-40.36,0-14.91-3.73-28.77-13.46-40.57-10.14-12.22-25.87-18.425-42.22-18.425s-32.29,6.415-42.23,18.425c-9.1,10.97-13.45,25.04-13.45,40.57,0,15.11,3.93,28.77,13.45,40.36C1581.09,1111.3,1596.61,1117.72,1613.17,1117.72Zm29.39-58.99c0,9.1-1.86,18.42-7.04,25.25-4.96,6.83-13.45,10.35-22.35,10.35-9.11,0-17.39-3.52-22.36-10.35-5.38-6.83-6.83-16.15-6.83-25.25,0-9.32,1.45-18.63,6.83-25.46,4.97-6.83,13.25-10.15,22.36-10.15,8.9,0,17.39,3.32,22.35,10.15C1640.7,1040.1,1642.56,1049.41,1642.56,1058.73Zm76.79-36.43h32.91v-19.46h-32.91V971.792h-24.84v31.048h-20.28v19.46h20.28v46.57c0,12.83-1.03,23.8,4.56,32.5,5.79,8.9,12.41,12.42,22.56,14.07,8.07,1.45,22.14,1.45,30.63-.83v-20.9a93.066,93.066,0,0,1-18.42.83c-4.55-.42-9.52-2.28-12.21-6.84-2.69-4.34-2.28-11.38-2.28-20.07V1022.3Zm66.85,43.46h80.73c1.45-18.83-1.45-35.6-12.21-48.43-10.14-12.21-23.39-17.6-39.74-17.6-16.56,0-32.09,6.205-42.23,18.425-9.11,10.97-13.45,25.87-13.45,41.81a61.492,61.492,0,0,0,13.45,39.12c9.94,12.21,26.91,18.63,43.47,18.63a57.344,57.344,0,0,0,29.8-8.49,52.581,52.581,0,0,0,19.67-23.39l-24.63-7.45a27.687,27.687,0,0,1-8.9,10.76c-4.56,3.52-10.35,5.18-17.18,5.18-9.11,0-17.39-3.52-22.57-10.35C1788.48,1079.01,1786.83,1072.39,1786.2,1065.76Zm28.78-44.29c8.48,0,16.76,3.1,21.73,9.31,3.31,4.56,4.76,9.52,5.17,15.32h-55.26a31.034,31.034,0,0,1,6-14.49C1798.62,1024.16,1806.7,1021.47,1814.98,1021.47Z"/>
  <path class="cls-2" d="M520.809,990.763l34.129-33.635s-69.688-86.34-176-20.278c-0.523.326-1.07,0.622-1.573,0.987-5.127,3.722-106.347,81.663-17.183,194.183,0.094,0.11.187,0.23,0.281,0.35a10.963,10.963,0,0,0,1.074,1.34c4.388,4.04,77.491,77.82,164.06,20.39,0.546-.36,1.162-1.56,1.64-1.1,2.433,2.34,21.269,20.77,21.269,20.77l65.291-.49-51.441-53.91s55.554-73.27-.1-152.775c-0.131-.188-0.227-0.72-0.4-0.564-0.893.823-99.915,100.909-99.915,100.909l-25.72-25.73L416.442,1061l45.506,46.49,75.184-75.18s8.617,36.57-18.867,65.83c-0.14.15-.264,0.58-0.424,0.45-1.9-1.56-9.4-9.4-9.4-9.4l-24.237,22.26,7.42,8.41s-81.382,35.08-114.729-52.04c-0.175-.46-0.365-0.91-0.519-1.38-0.6-1.82-19.309-64.57,42.784-97.778,0.409-.219.809-0.463,1.237-0.652C421.253,967.633,472.512,938.406,520.809,990.763Z"/>
  <path class="cls-3" d="M133.021,916.074H374.4s-31.4,21.731-44.235,45.045c-0.447.811-.386,2.239-1.271,2.439-1.606.363-62.323,0.5-62.323,0.5V1165.86l-52.43.99-0.495-203.787-81.119-.494"/>
  <path class="cls-2" d="M534.658,900.246l-391.745.494s-1.807-15.587,10.388-21.763a140.283,140.283,0,0,0,21.269-13.355s2.683-49.055,37.873-87.767a9.211,9.211,0,0,0,.708-0.771c0.975-1.349,25.033-31.77,65.24-45.812,0.181-.063.364-0.122,0.545-0.189,0.924-.34,6.925,94.474,6.925,94.474h11.871l-1.979-107.334s1.268-9.6,8.954-10.354c0.146-.014.3,0,0.444-0.033,0.688-.133,35.446-7.546,73.345-0.168,0.283,0.055.572,0.085,0.849,0.168,1.027,0.3,9.83,1.97,9.4,11.871s-2.473,105.85-2.473,105.85h10.387l10.882-93.979s83.708,17.746,100.651,142.035c0.086,0.631-.336,1.646.253,1.9C509.539,875.989,537.505,873.024,534.658,900.246Z"/>
</svg>
