<svg viewBox="0 0 1000 500" xmlns="http://www.w3.org/2000/svg" role="img" style="font-family: system-ui, -apple-system, sans-serif;">
  <title>Mini-Split vs Central Air — HVAC system comparison</title>
  <desc>Side-by-side 3D illustration comparing a ductless mini-split system (left, teal) with a central air conditioning system (right, blue) showing outdoor units, indoor components, and key differences</desc>

  <defs>
    <!-- Background gradient -->
    <linearGradient id="bg" x1="0%" y1="0%" x2="100%" y2="100%">
      <stop offset="0%" stop-color="#f0f9ff"/>
      <stop offset="50%" stop-color="#f0fdfa"/>
      <stop offset="100%" stop-color="#f8fafc"/>
    </linearGradient>

    <!-- Left panel (mini-split) background -->
    <linearGradient id="lpanel" x1="0%" y1="0%" x2="100%" y2="100%">
      <stop offset="0%" stop-color="#ecfdf5"/>
      <stop offset="100%" stop-color="#f0fdfa"/>
    </linearGradient>

    <!-- Right panel (central air) background -->
    <linearGradient id="rpanel" x1="0%" y1="0%" x2="100%" y2="100%">
      <stop offset="0%" stop-color="#eff6ff"/>
      <stop offset="100%" stop-color="#f0f9ff"/>
    </linearGradient>

    <!-- 3D box top face (teal) -->
    <linearGradient id="tealTop" x1="0%" y1="0%" x2="0%" y2="100%">
      <stop offset="0%" stop-color="#5eead4"/>
      <stop offset="100%" stop-color="#14b8a6"/>
    </linearGradient>

    <!-- 3D box front face (teal) -->
    <linearGradient id="tealFront" x1="0%" y1="0%" x2="0%" y2="100%">
      <stop offset="0%" stop-color="#0d9488"/>
      <stop offset="100%" stop-color="#0f766e"/>
    </linearGradient>

    <!-- 3D box side face (teal, darker) -->
    <linearGradient id="tealSide" x1="0%" y1="0%" x2="100%" y2="0%">
      <stop offset="0%" stop-color="#0f766e"/>
      <stop offset="100%" stop-color="#0d9488"/>
    </linearGradient>

    <!-- 3D box top face (blue) -->
    <linearGradient id="blueTop" x1="0%" y1="0%" x2="0%" y2="100%">
      <stop offset="0%" stop-color="#93c5fd"/>
      <stop offset="100%" stop-color="#3b82f6"/>
    </linearGradient>

    <!-- 3D box front face (blue) -->
    <linearGradient id="blueFront" x1="0%" y1="0%" x2="0%" y2="100%">
      <stop offset="0%" stop-color="#1d4ed8"/>
      <stop offset="100%" stop-color="#1e40af"/>
    </linearGradient>

    <!-- 3D box side face (blue, darker) -->
    <linearGradient id="blueSide" x1="0%" y1="0%" x2="100%" y2="0%">
      <stop offset="0%" stop-color="#1e40af"/>
      <stop offset="100%" stop-color="#1d4ed8"/>
    </linearGradient>

    <!-- Wall gradient -->
    <linearGradient id="wall" x1="0%" y1="0%" x2="0%" y2="100%">
      <stop offset="0%" stop-color="#e2e8f0"/>
      <stop offset="100%" stop-color="#cbd5e1"/>
    </linearGradient>

    <!-- Ground gradient -->
    <linearGradient id="ground" x1="0%" y1="0%" x2="0%" y2="100%">
      <stop offset="0%" stop-color="#d1fae5"/>
      <stop offset="100%" stop-color="#a7f3d0"/>
    </linearGradient>
    <linearGradient id="groundR" x1="0%" y1="0%" x2="0%" y2="100%">
      <stop offset="0%" stop-color="#dbeafe"/>
      <stop offset="100%" stop-color="#bfdbfe"/>
    </linearGradient>

    <!-- Card/unit shadows -->
    <filter id="cardShadow" x="-15%" y="-15%" width="130%" height="140%">
      <feDropShadow dx="0" dy="4" stdDeviation="8" flood-color="#0f172a" flood-opacity="0.12"/>
    </filter>
    <filter id="unitShadow" x="-20%" y="-20%" width="140%" height="140%">
      <feDropShadow dx="2" dy="4" stdDeviation="6" flood-color="#0f172a" flood-opacity="0.2"/>
    </filter>

    <!-- Teal glow blob -->
    <radialGradient id="tealBlob" cx="50%" cy="50%" r="50%">
      <stop offset="0%" stop-color="#14b8a6" stop-opacity="0.15"/>
      <stop offset="100%" stop-color="#14b8a6" stop-opacity="0"/>
    </radialGradient>

    <!-- Blue glow blob -->
    <radialGradient id="blueBlob" cx="50%" cy="50%" r="50%">
      <stop offset="0%" stop-color="#3b82f6" stop-opacity="0.12"/>
      <stop offset="100%" stop-color="#3b82f6" stop-opacity="0"/>
    </radialGradient>

    <!-- Pipe gradient -->
    <linearGradient id="pipe" x1="0%" y1="0%" x2="100%" y2="0%">
      <stop offset="0%" stop-color="#92400e"/>
      <stop offset="50%" stop-color="#b45309"/>
      <stop offset="100%" stop-color="#92400e"/>
    </linearGradient>
    <linearGradient id="pipeB" x1="0%" y1="0%" x2="100%" y2="0%">
      <stop offset="0%" stop-color="#1e3a5f"/>
      <stop offset="50%" stop-color="#2563eb"/>
      <stop offset="100%" stop-color="#1e3a5f"/>
    </linearGradient>
  </defs>

  <!-- Background -->
  <rect width="1000" height="500" fill="url(#bg)"/>

  <!-- ════════════════════════════════════════════════ -->
  <!-- LEFT PANEL: MINI-SPLIT                          -->
  <!-- ════════════════════════════════════════════════ -->
  <rect x="20" y="20" width="460" height="460" rx="20" fill="url(#lpanel)" stroke="#99f6e4" stroke-width="1.5" filter="url(#cardShadow)"/>

  <!-- Teal glow accent -->
  <ellipse cx="240" cy="180" rx="160" ry="120" fill="url(#tealBlob)"/>

  <!-- Panel title -->
  <text x="250" y="56" text-anchor="middle" fill="#0f766e" font-size="14" font-weight="700" letter-spacing="3">MINI-SPLIT</text>
  <text x="250" y="74" text-anchor="middle" fill="#5eead4" font-size="10" letter-spacing="1.5">DUCTLESS · ZONED CONTROL</text>

  <!-- ── INDOOR WALL UNIT (3D box style) ─────────── -->
  <!-- Wall panel background -->
  <rect x="100" y="110" width="200" height="160" rx="6" fill="url(#wall)" stroke="#cbd5e1" stroke-width="1"/>
  <!-- Wall texture lines -->
  <line x1="100" y1="135" x2="300" y2="135" stroke="#e2e8f0" stroke-width="0.8"/>
  <line x1="100" y1="160" x2="300" y2="160" stroke="#e2e8f0" stroke-width="0.8"/>
  <line x1="100" y1="185" x2="300" y2="185" stroke="#e2e8f0" stroke-width="0.8"/>
  <line x1="100" y1="210" x2="300" y2="210" stroke="#e2e8f0" stroke-width="0.8"/>
  <line x1="100" y1="235" x2="300" y2="235" stroke="#e2e8f0" stroke-width="0.8"/>

  <!-- Indoor head unit — 3D box -->
  <!-- Front face -->
  <rect x="128" y="128" width="144" height="44" rx="6" fill="#f8fafc" stroke="#14b8a6" stroke-width="1.5" filter="url(#unitShadow)"/>
  <!-- Louver slots -->
  <rect x="136" y="144" width="128" height="5" rx="2" fill="#e0f2fe"/>
  <rect x="136" y="153" width="128" height="5" rx="2" fill="#e0f2fe"/>
  <!-- Indicator light -->
  <circle cx="262" cy="136" r="3.5" fill="#14b8a6" opacity="0.9"/>
  <circle cx="262" cy="136" r="5.5" fill="#14b8a6" fill-opacity="0.2"/>
  <!-- Brand label area -->
  <rect x="136" y="133" width="60" height="8" rx="2" fill="#e0f2fe" fill-opacity="0.6"/>
  <text x="166" y="140" text-anchor="middle" fill="#0891b2" font-size="6" letter-spacing="1">MINI-SPLIT</text>

  <!-- Airflow vanes (animated feel) -->
  <path d="M136 165 Q200 155 264 165" fill="none" stroke="#38bdf8" stroke-width="1.5" stroke-dasharray="4,3" opacity="0.6"/>
  <path d="M136 170 Q200 162 264 170" fill="none" stroke="#38bdf8" stroke-width="1.5" stroke-dasharray="4,3" opacity="0.4"/>

  <!-- Arrow showing cool air out -->
  <line x1="200" y1="175" x2="200" y2="205" stroke="#38bdf8" stroke-width="2" marker-end="url(#arrowTeal)"/>
  <defs>
    <marker id="arrowTeal" viewBox="0 0 10 10" refX="9" refY="5" markerWidth="5" markerHeight="5" orient="auto">
      <path d="M0,0 L10,5 L0,10z" fill="#38bdf8"/>
    </marker>
    <marker id="arrowBlue" viewBox="0 0 10 10" refX="9" refY="5" markerWidth="5" markerHeight="5" orient="auto">
      <path d="M0,0 L10,5 L0,10z" fill="#60a5fa"/>
    </marker>
  </defs>
  <text x="214" y="193" fill="#38bdf8" font-size="8" opacity="0.7">Cool Air</text>

  <!-- Label: Indoor Head -->
  <text x="200" y="98" text-anchor="middle" fill="#64748b" font-size="9" font-weight="600">Indoor Head Unit</text>
  <line x1="200" y1="101" x2="200" y2="110" stroke="#94a3b8" stroke-width="1" stroke-dasharray="2,2"/>

  <!-- ── REFRIGERANT LINE SET ──────────────────────── -->
  <!-- Line set running from indoor unit down to outdoor unit -->
  <!-- Suction line (larger, insulated) -->
  <path d="M155,172 C155,320 155,340 155,380" fill="none" stroke="#0f766e" stroke-width="6" stroke-linecap="round"/>
  <path d="M155,172 C155,320 155,340 155,380" fill="none" stroke="#ccfbf1" stroke-width="2" stroke-linecap="round"/>
  <!-- Liquid line (smaller) -->
  <path d="M165,172 C165,320 165,340 165,380" fill="none" stroke="#b45309" stroke-width="3.5" stroke-linecap="round" opacity="0.8"/>

  <!-- Small wall penetration sleeve -->
  <rect x="148" y="265" width="24" height="8" rx="2" fill="#cbd5e1" stroke="#94a3b8" stroke-width="1"/>

  <!-- Line set label -->
  <text x="183" y="278" fill="#64748b" font-size="8">Line set</text>
  <text x="183" y="289" fill="#64748b" font-size="8">(3″ hole)</text>

  <!-- ── OUTDOOR UNIT (3D isometric-ish box) ───────── -->
  <!-- Ground pad -->
  <ellipse cx="200" cy="438" rx="70" ry="10" fill="#0f766e" fill-opacity="0.12"/>
  <!-- Ground -->
  <rect x="100" y="420" width="200" height="18" rx="4" fill="url(#ground)" stroke="#6ee7b7" stroke-width="1"/>

  <!-- 3D outdoor unit: right side face -->
  <polygon points="268,390 288,374 288,420 268,420" fill="url(#tealSide)"/>
  <!-- 3D outdoor unit: top face -->
  <polygon points="132,374 268,374 288,358 152,358" fill="url(#tealTop)"/>
  <!-- 3D outdoor unit: front face -->
  <rect x="132" y="374" width="136" height="46" rx="3" fill="url(#tealFront)"/>

  <!-- Front panel grille lines -->
  <line x1="152" y1="378" x2="152" y2="418" stroke="#0f766e" stroke-width="1" opacity="0.5"/>
  <line x1="168" y1="378" x2="168" y2="418" stroke="#0f766e" stroke-width="1" opacity="0.5"/>
  <line x1="184" y1="378" x2="184" y2="418" stroke="#0f766e" stroke-width="1" opacity="0.5"/>
  <line x1="200" y1="378" x2="200" y2="418" stroke="#0f766e" stroke-width="1" opacity="0.5"/>
  <line x1="216" y1="378" x2="216" y2="418" stroke="#0f766e" stroke-width="1" opacity="0.5"/>
  <line x1="232" y1="378" x2="232" y2="418" stroke="#0f766e" stroke-width="1" opacity="0.5"/>
  <line x1="248" y1="378" x2="248" y2="418" stroke="#0f766e" stroke-width="1" opacity="0.5"/>

  <!-- Fan circle on front -->
  <circle cx="200" cy="396" r="18" fill="#0f766e" stroke="#5eead4" stroke-width="1.5"/>
  <circle cx="200" cy="396" r="10" fill="#0d9488" stroke="#5eead4" stroke-width="1"/>
  <line x1="200" y1="381" x2="200" y2="391" stroke="#5eead4" stroke-width="2"/>
  <line x1="200" y1="401" x2="200" y2="411" stroke="#5eead4" stroke-width="2"/>
  <line x1="185" y1="396" x2="195" y2="396" stroke="#5eead4" stroke-width="2"/>
  <line x1="205" y1="396" x2="215" y2="396" stroke="#5eead4" stroke-width="2"/>

  <!-- Top label -->
  <text x="200" y="354" text-anchor="middle" fill="#0f766e" font-size="8.5" font-weight="600">Outdoor Condensing Unit</text>

  <!-- ── STAT BADGES ───────────────────────────────── -->
  <rect x="38" y="295" width="88" height="52" rx="10" fill="#ffffff" stroke="#99f6e4" stroke-width="1.5" filter="url(#cardShadow)"/>
  <text x="82" y="315" text-anchor="middle" fill="#14b8a6" font-size="18" font-weight="700">22+</text>
  <text x="82" y="330" text-anchor="middle" fill="#0f766e" font-size="9" font-weight="600">SEER RATING</text>
  <text x="82" y="342" text-anchor="middle" fill="#64748b" font-size="8">High efficiency</text>

  <rect x="274" y="295" width="88" height="52" rx="10" fill="#ffffff" stroke="#99f6e4" stroke-width="1.5" filter="url(#cardShadow)"/>
  <text x="318" y="315" text-anchor="middle" fill="#14b8a6" font-size="14" font-weight="700">No Ducts</text>
  <text x="318" y="330" text-anchor="middle" fill="#0f766e" font-size="9" font-weight="600">DUCTLESS</text>
  <text x="318" y="342" text-anchor="middle" fill="#64748b" font-size="8">Each zone independent</text>

  <!-- ── BOTTOM CALLOUT ────────────────────────────── -->
  <text x="250" y="468" text-anchor="middle" fill="#0f766e" font-size="10" font-weight="600">$3,000 – $5,000 per zone installed</text>

  <!-- ════════════════════════════════════════════════ -->
  <!-- RIGHT PANEL: CENTRAL AIR                        -->
  <!-- ════════════════════════════════════════════════ -->
  <rect x="520" y="20" width="460" height="460" rx="20" fill="url(#rpanel)" stroke="#bfdbfe" stroke-width="1.5" filter="url(#cardShadow)"/>

  <!-- Blue glow accent -->
  <ellipse cx="750" cy="180" rx="160" ry="120" fill="url(#blueBlob)"/>

  <!-- Panel title -->
  <text x="750" y="56" text-anchor="middle" fill="#1d4ed8" font-size="14" font-weight="700" letter-spacing="3">CENTRAL AIR</text>
  <text x="750" y="74" text-anchor="middle" fill="#93c5fd" font-size="10" letter-spacing="1.5">DUCTED · WHOLE HOUSE</text>

  <!-- ── ROOM CEILING WITH DUCTWORK ──────────────────── -->
  <!-- Ceiling -->
  <rect x="598" y="108" width="324" height="16" rx="4" fill="#e2e8f0" stroke="#cbd5e1" stroke-width="1"/>

  <!-- Main supply trunk duct -->
  <rect x="680" y="124" width="140" height="22" rx="3" fill="#dbeafe" stroke="#93c5fd" stroke-width="1.5"/>
  <text x="750" y="139" text-anchor="middle" fill="#3b82f6" font-size="8" font-weight="600">Supply Duct</text>

  <!-- Branch ducts going down -->
  <rect x="700" y="146" width="16" height="60" rx="3" fill="#dbeafe" stroke="#93c5fd" stroke-width="1.5"/>
  <rect x="744" y="146" width="16" height="60" rx="3" fill="#dbeafe" stroke="#93c5fd" stroke-width="1.5"/>
  <rect x="788" y="146" width="16" height="60" rx="3" fill="#dbeafe" stroke="#93c5fd" stroke-width="1.5"/>

  <!-- Supply registers (3D style) -->
  <!-- Register 1 -->
  <rect x="694" y="206" width="28" height="14" rx="3" fill="#eff6ff" stroke="#3b82f6" stroke-width="1.5"/>
  <line x1="699" y1="208" x2="699" y2="218" stroke="#93c5fd" stroke-width="1.5"/>
  <line x1="706" y1="208" x2="706" y2="218" stroke="#93c5fd" stroke-width="1.5"/>
  <line x1="713" y1="208" x2="713" y2="218" stroke="#93c5fd" stroke-width="1.5"/>
  <!-- Register 2 -->
  <rect x="738" y="206" width="28" height="14" rx="3" fill="#eff6ff" stroke="#3b82f6" stroke-width="1.5"/>
  <line x1="743" y1="208" x2="743" y2="218" stroke="#93c5fd" stroke-width="1.5"/>
  <line x1="750" y1="208" x2="750" y2="218" stroke="#93c5fd" stroke-width="1.5"/>
  <line x1="757" y1="208" x2="757" y2="218" stroke="#93c5fd" stroke-width="1.5"/>
  <!-- Register 3 -->
  <rect x="782" y="206" width="28" height="14" rx="3" fill="#eff6ff" stroke="#3b82f6" stroke-width="1.5"/>
  <line x1="787" y1="208" x2="787" y2="218" stroke="#93c5fd" stroke-width="1.5"/>
  <line x1="794" y1="208" x2="794" y2="218" stroke="#93c5fd" stroke-width="1.5"/>
  <line x1="801" y1="208" x2="801" y2="218" stroke="#93c5fd" stroke-width="1.5"/>

  <!-- Airflow arrows from registers -->
  <line x1="708" y1="220" x2="708" y2="245" stroke="#60a5fa" stroke-width="2" stroke-dasharray="3,2" marker-end="url(#arrowBlue)" opacity="0.7"/>
  <line x1="752" y1="220" x2="752" y2="245" stroke="#60a5fa" stroke-width="2" stroke-dasharray="3,2" marker-end="url(#arrowBlue)" opacity="0.7"/>
  <line x1="796" y1="220" x2="796" y2="245" stroke="#60a5fa" stroke-width="2" stroke-dasharray="3,2" marker-end="url(#arrowBlue)" opacity="0.7"/>

  <!-- Wall section -->
  <rect x="598" y="110" width="16" height="200" fill="url(#wall)" stroke="#cbd5e1" stroke-width="1"/>
  <rect x="906" y="110" width="16" height="200" fill="url(#wall)" stroke="#cbd5e1" stroke-width="1"/>

  <!-- ── THERMOSTAT ──────────────────────────────── -->
  <rect x="610" y="188" width="40" height="56" rx="8" fill="#ffffff" stroke="#bfdbfe" stroke-width="1.5" filter="url(#cardShadow)"/>
  <rect x="616" y="196" width="28" height="18" rx="4" fill="#eff6ff"/>
  <text x="630" y="209" text-anchor="middle" fill="#1d4ed8" font-size="12" font-weight="700">72°</text>
  <circle cx="624" cy="224" r="4" fill="#e2e8f0"/>
  <circle cx="636" cy="224" r="4" fill="#3b82f6" fill-opacity="0.5"/>
  <text x="630" y="238" text-anchor="middle" fill="#64748b" font-size="8">Thermostat</text>

  <!-- ── AIR HANDLER / FURNACE ──────────────────── -->
  <rect x="856" y="130" width="58" height="100" rx="5" fill="#f1f5f9" stroke="#cbd5e1" stroke-width="1.5" filter="url(#unitShadow)"/>
  <!-- Coil section -->
  <rect x="862" y="136" width="46" height="36" rx="3" fill="#dbeafe" stroke="#93c5fd" stroke-width="1"/>
  <line x1="870" y1="142" x2="900" y2="142" stroke="#93c5fd" stroke-width="1.5"/>
  <line x1="870" y1="150" x2="900" y2="150" stroke="#93c5fd" stroke-width="1.5"/>
  <line x1="870" y1="158" x2="900" y2="158" stroke="#93c5fd" stroke-width="1.5"/>
  <!-- Blower motor section -->
  <rect x="862" y="176" width="46" height="30" rx="3" fill="#e0e7ff" stroke="#818cf8" stroke-width="1"/>
  <circle cx="885" cy="191" r="10" fill="#eff6ff" stroke="#6366f1" stroke-width="1.5"/>
  <circle cx="885" cy="191" r="4" fill="#6366f1" fill-opacity="0.4"/>
  <!-- Label -->
  <text x="885" y="216" text-anchor="middle" fill="#3b82f6" font-size="8" font-weight="600">Air Handler</text>
  <text x="885" y="226" text-anchor="middle" fill="#64748b" font-size="7">+ Blower</text>

  <!-- Return duct -->
  <rect x="660" y="220" width="20" height="36" rx="3" fill="#dbeafe" stroke="#93c5fd" stroke-width="1" stroke-dasharray="3,2"/>
  <text x="670" y="262" text-anchor="middle" fill="#60a5fa" font-size="7">Return</text>

  <!-- ── REFRIGERANT LINES (outdoor to air handler) ─── -->
  <path d="M885,232 C885,300 885,320 885,350" fill="none" stroke="#0f766e" stroke-width="6" stroke-linecap="round"/>
  <path d="M885,232 C885,300 885,320 885,350" fill="none" stroke="#ccfbf1" stroke-width="2" stroke-linecap="round"/>
  <path d="M895,232 C895,300 895,320 895,350" fill="none" stroke="#b45309" stroke-width="3.5" stroke-linecap="round" opacity="0.8"/>

  <!-- ── OUTDOOR CONDENSER (3D box) ─────────────────── -->
  <!-- Ground -->
  <rect x="590" y="420" width="340" height="18" rx="4" fill="url(#groundR)" stroke="#93c5fd" stroke-width="1"/>
  <ellipse cx="750" cy="430" rx="120" ry="12" fill="#3b82f6" fill-opacity="0.08"/>

  <!-- 3D outdoor unit: right side face -->
  <polygon points="828,375 858,358 858,416 828,416" fill="url(#blueSide)"/>
  <!-- 3D outdoor unit: top face -->
  <polygon points="642,358 828,358 858,341 672,341" fill="url(#blueTop)"/>
  <!-- 3D outdoor unit: front face -->
  <rect x="642" y="358" width="186" height="58" rx="3" fill="url(#blueFront)"/>

  <!-- Front panel grille lines -->
  <line x1="664" y1="362" x2="664" y2="414" stroke="#1e40af" stroke-width="1" opacity="0.5"/>
  <line x1="682" y1="362" x2="682" y2="414" stroke="#1e40af" stroke-width="1" opacity="0.5"/>
  <line x1="700" y1="362" x2="700" y2="414" stroke="#1e40af" stroke-width="1" opacity="0.5"/>
  <line x1="718" y1="362" x2="718" y2="414" stroke="#1e40af" stroke-width="1" opacity="0.5"/>
  <line x1="736" y1="362" x2="736" y2="414" stroke="#1e40af" stroke-width="1" opacity="0.5"/>
  <line x1="754" y1="362" x2="754" y2="414" stroke="#1e40af" stroke-width="1" opacity="0.5"/>
  <line x1="772" y1="362" x2="772" y2="414" stroke="#1e40af" stroke-width="1" opacity="0.5"/>
  <line x1="790" y1="362" x2="790" y2="414" stroke="#1e40af" stroke-width="1" opacity="0.5"/>
  <line x1="808" y1="362" x2="808" y2="414" stroke="#1e40af" stroke-width="1" opacity="0.5"/>

  <!-- Fan circle (larger than mini-split) -->
  <circle cx="735" cy="387" r="22" fill="#1e40af" stroke="#93c5fd" stroke-width="1.5"/>
  <circle cx="735" cy="387" r="13" fill="#1d4ed8" stroke="#93c5fd" stroke-width="1"/>
  <line x1="735" y1="369" x2="735" y2="381" stroke="#93c5fd" stroke-width="2.5"/>
  <line x1="735" y1="393" x2="735" y2="405" stroke="#93c5fd" stroke-width="2.5"/>
  <line x1="717" y1="387" x2="729" y2="387" stroke="#93c5fd" stroke-width="2.5"/>
  <line x1="741" y1="387" x2="753" y2="387" stroke="#93c5fd" stroke-width="2.5"/>

  <!-- Top label for condenser -->
  <text x="735" y="337" text-anchor="middle" fill="#1d4ed8" font-size="8.5" font-weight="600">Outdoor Condenser</text>

  <!-- ── STAT BADGES ────────────────────────────────── -->
  <rect x="538" y="295" width="88" height="52" rx="10" fill="#ffffff" stroke="#bfdbfe" stroke-width="1.5" filter="url(#cardShadow)"/>
  <text x="582" y="315" text-anchor="middle" fill="#3b82f6" font-size="18" font-weight="700">14–18</text>
  <text x="582" y="330" text-anchor="middle" fill="#1d4ed8" font-size="9" font-weight="600">SEER RATING</text>
  <text x="582" y="342" text-anchor="middle" fill="#64748b" font-size="8">Standard efficiency</text>

  <rect x="874" y="295" width="88" height="52" rx="10" fill="#ffffff" stroke="#bfdbfe" stroke-width="1.5" filter="url(#cardShadow)"/>
  <text x="918" y="312" text-anchor="middle" fill="#3b82f6" font-size="13" font-weight="700">Whole</text>
  <text x="918" y="326" text-anchor="middle" fill="#3b82f6" font-size="13" font-weight="700">House</text>
  <text x="918" y="342" text-anchor="middle" fill="#64748b" font-size="8">Single thermostat</text>

  <!-- ── BOTTOM CALLOUT ────────────────────────────── -->
  <text x="750" y="468" text-anchor="middle" fill="#1d4ed8" font-size="10" font-weight="600">$5,000 – $12,000 whole house installed</text>

  <!-- ════════════════════════════════════════════════ -->
  <!-- CENTER VS BADGE                                  -->
  <!-- ════════════════════════════════════════════════ -->
  <circle cx="500" cy="250" r="30" fill="#ffffff" stroke="#e2e8f0" stroke-width="2" filter="url(#cardShadow)"/>
  <text x="500" y="256" text-anchor="middle" fill="#64748b" font-size="16" font-weight="700" letter-spacing="0.5">VS</text>

  <!-- Divider line -->
  <line x1="500" y1="50" x2="500" y2="220" stroke="#e2e8f0" stroke-width="1.5"/>
  <line x1="500" y1="280" x2="500" y2="460" stroke="#e2e8f0" stroke-width="1.5"/>

  <!-- ════════════════════════════════════════════════ -->
  <!-- FOOTER ACCENT LINE                               -->
  <!-- ════════════════════════════════════════════════ -->
  <defs>
    <linearGradient id="footerLine" x1="0%" y1="0%" x2="100%" y2="0%">
      <stop offset="0%" stop-color="#14b8a6"/>
      <stop offset="50%" stop-color="#38bdf8"/>
      <stop offset="100%" stop-color="#3b82f6"/>
    </linearGradient>
  </defs>
  <rect x="0" y="494" width="1000" height="6" fill="url(#footerLine)"/>
</svg>
